{
	"asset":{
		"generator":"Khronos glTF Blender I/O v4.0.44",
		"version":"2.0"
	},
	"scene":0,
	"scenes":[
		{
			"name":"Scene",
			"nodes":[
				0,
				2
			]
		}
	],
	"nodes":[
		{
			"extras":{
				"Physics Object":true,
				"Collider":"AABB",
				"Rigidbody":false
			},
			"mesh":0,
			"name":"Cube",
			"scale":[
				8.929765701293945,
				0.11772078275680542,
				10.245837211608887
			],
			"translation":[
				-6.829999923706055,
				-2,
				0
			]
		},
		{
			"mesh":1,
			"name":"Cone",
			"translation":[
				0,
				1.2999999523162842,
				0
			]
		},
		{
			"children":[
				1
			],
			"extras":{
				"Physics Object":true,
				"Collider":"Sphere",
				"Rigidbody":true,
				"Mass":1.0,
				"Gravity Factor":1.0
			},
			"mesh":2,
			"name":"Sphere",
			"rotation":[
				0,
				0,
				-0.7071068286895752,
				0.7071068286895752
			],
			"scale":[
				2,
				2,
				2
			],
			"translation":[
				-5.349999904632568,
				1.7502262592315674,
				0
			]
		}
	],
	"materials":[
		{
			"doubleSided":true,
			"name":"Material",
			"pbrMetallicRoughness":{
				"baseColorFactor":[
					0.800000011920929,
					0.800000011920929,
					0.800000011920929,
					1
				],
				"metallicFactor":0,
				"roughnessFactor":0.5
			}
		}
	],
	"meshes":[
		{
			"name":"Cube",
			"primitives":[
				{
					"attributes":{
						"POSITION":0,
						"NORMAL":1,
						"TEXCOORD_0":2
					},
					"indices":3,
					"material":0
				}
			]
		},
		{
			"name":"Cone",
			"primitives":[
				{
					"attributes":{
						"POSITION":4,
						"NORMAL":5,
						"TEXCOORD_0":6
					},
					"indices":7
				}
			]
		},
		{
			"name":"Sphere",
			"primitives":[
				{
					"attributes":{
						"POSITION":8,
						"NORMAL":9,
						"TEXCOORD_0":10
					},
					"indices":11
				}
			]
		}
	],
	"accessors":[
		{
			"bufferView":0,
			"componentType":5126,
			"count":24,
			"max":[
				1,
				1,
				1
			],
			"min":[
				-1,
				-1,
				-1
			],
			"type":"VEC3"
		},
		{
			"bufferView":1,
			"componentType":5126,
			"count":24,
			"type":"VEC3"
		},
		{
			"bufferView":2,
			"componentType":5126,
			"count":24,
			"type":"VEC2"
		},
		{
			"bufferView":3,
			"componentType":5123,
			"count":36,
			"type":"SCALAR"
		},
		{
			"bufferView":4,
			"componentType":5126,
			"count":128,
			"max":[
				1,
				1,
				1
			],
			"min":[
				-1,
				-1,
				-1
			],
			"type":"VEC3"
		},
		{
			"bufferView":5,
			"componentType":5126,
			"count":128,
			"type":"VEC3"
		},
		{
			"bufferView":6,
			"componentType":5126,
			"count":128,
			"type":"VEC2"
		},
		{
			"bufferView":7,
			"componentType":5123,
			"count":186,
			"type":"SCALAR"
		},
		{
			"bufferView":8,
			"componentType":5126,
			"count":1984,
			"max":[
				0.9999997019767761,
				1,
				0.9999993443489075
			],
			"min":[
				-0.9999990463256836,
				-1,
				-1
			],
			"type":"VEC3"
		},
		{
			"bufferView":9,
			"componentType":5126,
			"count":1984,
			"type":"VEC3"
		},
		{
			"bufferView":10,
			"componentType":5126,
			"count":1984,
			"type":"VEC2"
		},
		{
			"bufferView":11,
			"componentType":5123,
			"count":2880,
			"type":"SCALAR"
		}
	],
	"bufferViews":[
		{
			"buffer":0,
			"byteLength":288,
			"byteOffset":0,
			"target":34962
		},
		{
			"buffer":0,
			"byteLength":288,
			"byteOffset":288,
			"target":34962
		},
		{
			"buffer":0,
			"byteLength":192,
			"byteOffset":576,
			"target":34962
		},
		{
			"buffer":0,
			"byteLength":72,
			"byteOffset":768,
			"target":34963
		},
		{
			"buffer":0,
			"byteLength":1536,
			"byteOffset":840,
			"target":34962
		},
		{
			"buffer":0,
			"byteLength":1536,
			"byteOffset":2376,
			"target":34962
		},
		{
			"buffer":0,
			"byteLength":1024,
			"byteOffset":3912,
			"target":34962
		},
		{
			"buffer":0,
			"byteLength":372,
			"byteOffset":4936,
			"target":34963
		},
		{
			"buffer":0,
			"byteLength":23808,
			"byteOffset":5308,
			"target":34962
		},
		{
			"buffer":0,
			"byteLength":23808,
			"byteOffset":29116,
			"target":34962
		},
		{
			"buffer":0,
			"byteLength":15872,
			"byteOffset":52924,
			"target":34962
		},
		{
			"buffer":0,
			"byteLength":5760,
			"byteOffset":68796,
			"target":34963
		}
	],
	"buffers":[
		{
			"byteLength":74556,
			"uri":"physics_test_transform_parent.bin"
		}
	]
}
