{
	"asset":{
		"generator":"Khronos glTF Blender I/O v4.0.44",
		"version":"2.0"
	},
	"scene":0,
	"scenes":[
		{
			"name":"Scene",
			"nodes":[
				0,
				1
			]
		}
	],
	"nodes":[
		{
			"extras":{
				"Physics Object":true,
				"Collider":"AABB",
				"Rigidbody":false
			},
			"mesh":0,
			"name":"Cube",
			"scale":[
				8.929765701293945,
				0.11772078275680542,
				10.245837211608887
			],
			"translation":[
				-6.829999923706055,
				-2,
				0
			]
		},
		{
			"extras":{
				"Physics Object":true,
				"Collider":"Sphere",
				"Rigidbody":true,
				"Mass":1.0,
				"Gravity Factor":1.0
			},
			"mesh":1,
			"name":"Sphere",
			"translation":[
				-5.349999904632568,
				1.7502262592315674,
				0
			]
		}
	],
	"materials":[
		{
			"doubleSided":true,
			"name":"Material",
			"pbrMetallicRoughness":{
				"baseColorFactor":[
					0.800000011920929,
					0.800000011920929,
					0.800000011920929,
					1
				],
				"metallicFactor":0,
				"roughnessFactor":0.5
			}
		}
	],
	"meshes":[
		{
			"name":"Cube",
			"primitives":[
				{
					"attributes":{
						"POSITION":0,
						"NORMAL":1,
						"TEXCOORD_0":2,
						"TANGENT":3
					},
					"indices":4,
					"material":0
				}
			]
		},
		{
			"name":"Sphere",
			"primitives":[
				{
					"attributes":{
						"POSITION":5,
						"NORMAL":6,
						"TEXCOORD_0":7,
						"TANGENT":8
					},
					"indices":9
				}
			]
		}
	],
	"accessors":[
		{
			"bufferView":0,
			"componentType":5126,
			"count":24,
			"max":[
				1,
				1,
				1
			],
			"min":[
				-1,
				-1,
				-1
			],
			"type":"VEC3"
		},
		{
			"bufferView":1,
			"componentType":5126,
			"count":24,
			"type":"VEC3"
		},
		{
			"bufferView":2,
			"componentType":5126,
			"count":24,
			"type":"VEC2"
		},
		{
			"bufferView":3,
			"componentType":5126,
			"count":24,
			"type":"VEC4"
		},
		{
			"bufferView":4,
			"componentType":5123,
			"count":36,
			"type":"SCALAR"
		},
		{
			"bufferView":5,
			"componentType":5126,
			"count":1984,
			"max":[
				0.9999997019767761,
				1,
				0.9999993443489075
			],
			"min":[
				-0.9999990463256836,
				-1,
				-1
			],
			"type":"VEC3"
		},
		{
			"bufferView":6,
			"componentType":5126,
			"count":1984,
			"type":"VEC3"
		},
		{
			"bufferView":7,
			"componentType":5126,
			"count":1984,
			"type":"VEC2"
		},
		{
			"bufferView":8,
			"componentType":5126,
			"count":1984,
			"type":"VEC4"
		},
		{
			"bufferView":9,
			"componentType":5123,
			"count":2880,
			"type":"SCALAR"
		}
	],
	"bufferViews":[
		{
			"buffer":0,
			"byteLength":288,
			"byteOffset":0,
			"target":34962
		},
		{
			"buffer":0,
			"byteLength":288,
			"byteOffset":288,
			"target":34962
		},
		{
			"buffer":0,
			"byteLength":192,
			"byteOffset":576,
			"target":34962
		},
		{
			"buffer":0,
			"byteLength":384,
			"byteOffset":768,
			"target":34962
		},
		{
			"buffer":0,
			"byteLength":72,
			"byteOffset":1152,
			"target":34963
		},
		{
			"buffer":0,
			"byteLength":23808,
			"byteOffset":1224,
			"target":34962
		},
		{
			"buffer":0,
			"byteLength":23808,
			"byteOffset":25032,
			"target":34962
		},
		{
			"buffer":0,
			"byteLength":15872,
			"byteOffset":48840,
			"target":34962
		},
		{
			"buffer":0,
			"byteLength":31744,
			"byteOffset":64712,
			"target":34962
		},
		{
			"buffer":0,
			"byteLength":5760,
			"byteOffset":96456,
			"target":34963
		}
	],
	"buffers":[
		{
			"byteLength":102216,
			"uri":"physics_test.bin"
		}
	]
}
